<mxfile host="app.diagrams.net" modified="2024-01-18T03:21:37.714Z" agent="Mozilla/5.0 (Windows NT 10.0; Win64; x64) AppleWebKit/537.36 (KHTML, like Gecko) Chrome/120.0.0.0 Safari/537.36" etag="EHOaElXcJT4k0Z2QwbAX" version="22.1.18" type="github">
  <diagram id="C5RBs43oDa-KdzZeNtuy" name="Page-1">
    <mxGraphModel dx="3000" dy="1514" grid="1" gridSize="10" guides="1" tooltips="1" connect="1" arrows="1" fold="1" page="1" pageScale="1" pageWidth="827" pageHeight="1169" math="0" shadow="0">
      <root>
        <mxCell id="WIyWlLk6GJQsqaUBKTNV-0" />
        <mxCell id="WIyWlLk6GJQsqaUBKTNV-1" parent="WIyWlLk6GJQsqaUBKTNV-0" />
        <mxCell id="QQ3_77_toEDUwIlfS5X5-32" value="golive" style="swimlane;startSize=20;horizontal=1;containerType=tree;" parent="WIyWlLk6GJQsqaUBKTNV-1" vertex="1">
          <mxGeometry x="770" y="90" width="420" height="400" as="geometry">
            <mxRectangle x="770" y="90" width="80" height="30" as="alternateBounds" />
          </mxGeometry>
        </mxCell>
        <mxCell id="QQ3_77_toEDUwIlfS5X5-85" value="golive 业务层" style="rounded=0;whiteSpace=wrap;html=1;" parent="QQ3_77_toEDUwIlfS5X5-32" vertex="1">
          <mxGeometry x="30" y="140" width="360" height="50" as="geometry" />
        </mxCell>
        <mxCell id="QQ3_77_toEDUwIlfS5X5-86" value="golive SDK调用层" style="rounded=0;whiteSpace=wrap;html=1;" parent="QQ3_77_toEDUwIlfS5X5-32" vertex="1">
          <mxGeometry x="30" y="220" width="360" height="50" as="geometry" />
        </mxCell>
        <mxCell id="QQ3_77_toEDUwIlfS5X5-87" value="golive SDK层" style="rounded=0;whiteSpace=wrap;html=1;" parent="QQ3_77_toEDUwIlfS5X5-32" vertex="1">
          <mxGeometry x="30" y="300" width="360" height="50" as="geometry" />
        </mxCell>
        <mxCell id="XCUvzn4cYwwrI4w752Xu-0" value="UI层" style="rounded=0;whiteSpace=wrap;html=1;" parent="QQ3_77_toEDUwIlfS5X5-32" vertex="1">
          <mxGeometry x="30" y="50" width="360" height="50" as="geometry" />
        </mxCell>
      </root>
    </mxGraphModel>
  </diagram>
</mxfile>
